<?xml version="1.0" encoding="utf-8"?>
<!-- Generator: Adobe Illustrator 19.1.0, SVG Export Plug-In . SVG Version: 6.00 Build 0)  -->
<svg version="1.1" id="Layer_1" xmlns="http://www.w3.org/2000/svg" xmlns:xlink="http://www.w3.org/1999/xlink" x="0px" y="0px"
	 viewBox="0 0 240.1 56" style="enable-background:new 0 0 240.1 56;" xml:space="preserve">
<style type="text/css">
	.st0{fill:#FFFFFF;}
	.st1{fill:#94A3AB;}
	.st2{fill:#00B29F;}
	.st3{fill:#5AAAFA;}
	.st4{fill:#90908F;}
</style>
<g id="XMLID_1_">
	<g>
		<g>
			<path class="st0" d="M70.3,16.4h2.1v22.4h-2.1V16.4z"/>
			<path class="st0" d="M75.2,16.4h9.5c3.8,0,7.2,1.4,7.2,5.4c0,2.3-1.6,4.6-3.8,5.1l0,0c3,0.4,4.7,2.6,4.7,5.4c0,2.1-0.7,6.3-8,6.3
				h-9.5V16.4z M77.3,26.4h7.4c3.3,0,5.1-1.8,5.1-3.9c0-2.8-1.8-4.2-5.1-4.2h-7.4V26.4z M77.3,37.1h7.4c3.1,0,6-1.1,6-4.6
				c0-3-2.1-4.4-6-4.4h-7.4V37.1z"/>
			<path class="st0" d="M94.8,16.4H98l7.7,19.6l7.7-19.6h3.2v22.4h-2.1V19.6l0,0L106.8,39h-2.1l-7.7-19.4l0,0V39h-2.1L94.8,16.4z"/>
		</g>
		<path class="st0" d="M126,16.4h10.5c4.2,0,7.2,1.4,7.2,5.6c0,2.3-1.1,3.7-3,4.7c2.8,0.7,4.2,3,4.2,5.8c0,4.5-3.8,6.5-7.9,6.5h-11
			V16.4z M130.9,25.6h5.1c1.8,0,3-0.7,3-2.6c0-2.1-1.6-2.6-3.3-2.6h-4.6v5.2H130.9z M130.9,35.2h5.2c1.9,0,3.7-0.7,3.7-3
			s-1.4-3.1-3.5-3.1h-5.4V35.2z"/>
		<path class="st0" d="M147,16.4h4.6v22.4H147V16.4z"/>
		<path class="st0" d="M169.4,39h-4.2v-2.3H165c-1.1,1.9-3.2,2.6-4.9,2.6c-4.7,0-5.9-2.6-5.9-6.6v-10h4.5v9.1c0,2.6,0.7,4,2.8,4
			c2.4,0,3.5-1.4,3.5-4.7v-8.4h4.5V39H169.4z"/>
		<path class="st0" d="M175.9,31.9c0.2,2.8,1.4,4.2,4,4.2c1.8,0,3.3-1,3.5-2.1h3.8c-1.2,3.8-3.8,5.4-7.5,5.4c-5.1,0-8.2-3.5-8.2-8.6
			c0-4.9,3.3-8.6,8.2-8.6c5.6,0,8.2,4.7,7.9,9.6H175.9z M183.2,29.1c-0.3-2.3-1.4-3.5-3.5-3.5c-3,0-3.7,2.3-3.7,3.5H183.2z"/>
		<path class="st0" d="M189.9,22.8h4.2V25l0,0c1.2-1.8,2.8-2.6,4.9-2.6c2.1,0,3.8,0.7,4.7,2.6c1.1-1.4,2.6-2.6,4.9-2.6
			c3.5,0,6,1.6,6,5.8V39H210v-9.3c0-2.1-0.2-4-2.8-4c-2.4,0-3,2.1-3,4.2V39h-4.6v-9.3c0-1.9,0.2-4-2.6-4c-0.9,0-3,0.5-3,3.7v9.5
			h-4.6V22.8H189.9z"/>
		<path class="st0" d="M221.9,20.1h-4.6v-3.7h4.6V20.1z M217.5,22.8h4.5V39h-4.5V22.8z"/>
		<path class="st0" d="M229.4,30.4l-5.4-7.7h5.1l2.8,4.2l2.8-4.2h4.9l-5.4,7.5l5.9,8.6H235l-3.3-5.1l-3.3,5.1h-5.1L229.4,30.4z"/>
	</g>
	<g>
		<path class="st1" d="M17,28c0,2.1,0.3,4,1.2,6c0.7,1.8,1.9,3.5,3.3,4.9c0.4,0.4,0.7,0.5,0.9,0.9V16.3c-0.3,0.4-0.7,0.5-1,0.9
			c-1.4,1.4-2.5,3-3.3,4.9C17.3,24,17,25.9,17,28z"/>
		<path class="st2" d="M43.2,17.1c-1.4-1.4-3-2.4-4.9-3.3c-1.9-0.9-3.9-1.2-6-1.2c-1.8,0-3.5,0.3-5.2,0.9l20.3,11.7
			c-0.2-1.1-0.5-2.3-1-3.3C45.7,20.1,44.6,18.6,43.2,17.1z"/>
		<path class="st2" d="M25.2,14.3L25.2,14.3l7.5,13h15c0-0.2,0-0.4,0-0.5L25.7,14.2C25.6,14.2,25.4,14.3,25.2,14.3z"/>
		<path class="st3" d="M47.6,28.7L47.6,28.7H32.5l0,0L25,41.6l0,0c0.2,0,0.4,0.2,0.5,0.2L47.6,29C47.6,28.9,47.6,28.9,47.6,28.7z"/>
		<path class="st3" d="M38.3,42.2c1.8-0.7,3.5-1.9,4.9-3.3s2.4-3,3.3-4.9c0.5-1.1,0.7-2.1,1.1-3.3L27.3,42.4
			c1.8,0.5,3.5,0.9,5.2,0.9C34.5,43.4,36.4,42.9,38.3,42.2z"/>
		<path class="st1" d="M31.7,28L31.7,28L31.7,28l-7.5-12.9l0,0l-0.3,0.3v25.4c0.2,0.2,0.3,0.2,0.3,0.4l0,0L31.7,28z"/>
		<path class="st4" d="M32.7,28.7L32.7,28.7L32.7,28.7z"/>
		<path class="st2" d="M32.4,11.6c8.4,0,15.4,6.3,16.5,14.5c0,0.2,0,0.5,0,0.7l0,0l7.5-13.1L48.5,0H32.7l-7.5,13.1
			c0.2-0.2,0.5-0.2,0.7-0.3C27.8,11.9,30.1,11.6,32.4,11.6z"/>
		<rect x="25.2" y="42.9" class="st4" width="0" height="0.5"/>
		<path class="st3" d="M48.8,29.2L48.8,29.2c0,0.2,0,0.5,0,0.7C48,38.1,41,44.6,32.4,44.6c-2.3,0-4.6-0.5-6.5-1.4
			c-0.2-0.2-0.5-0.2-0.7-0.4L32.7,56h15.8l7.9-13.6L48.8,29.2z"/>
		<path class="st1" d="M23.1,14.3H7.9L0,28l7.9,13.6h15.2l0,0c-0.2-0.2-0.4-0.3-0.5-0.3c-4.2-3.2-6.8-7.9-6.8-13.3
			s2.6-10.1,6.6-13.3C22.8,14.5,22.9,14.5,23.1,14.3z"/>
	</g>
</g>
</svg>
